<?xml version="1.0" encoding="utf-8"?>
<!-- Generator: Adobe Illustrator 15.0.0, SVG Export Plug-In  -->
<!DOCTYPE svg PUBLIC "-//W3C//DTD SVG 1.1//EN" "http://www.w3.org/Graphics/SVG/1.1/DTD/svg11.dtd" [
	<!ENTITY ns_flows "http://ns.adobe.com/Flows/1.0/">
]>
<svg version="1.1"
	 xmlns="http://www.w3.org/2000/svg" xmlns:xlink="http://www.w3.org/1999/xlink" xmlns:a="http://ns.adobe.com/AdobeSVGViewerExtensions/3.0/"
	 x="0px" y="0px" width="842px" height="1191px" viewBox="-25 -464.485 842 1191"
	 overflow="visible" enable-background="new -25 -464.485 842 1191" xml:space="preserve">
<defs>
</defs>
<path d="M140.296,44.292c-7.613-6.492-15.69-11.363-24.155-14.61c-8.503-3.247-17.431-4.868-26.785-4.868
	c-18.126,0-32.852,5.796-44.215,17.429C33.778,53.876,28.099,68.951,28.099,87.423c0,17.897,5.527,32.663,16.58,44.296
	c11.053,11.629,25.007,17.427,41.857,17.427c9.778,0,19.131-1.736,28.02-5.218c8.852-3.477,17.354-8.694,25.509-15.729v30.456
	c-7.229,5.218-15.151,9.083-23.654,11.634c-8.541,2.59-17.778,3.865-27.75,3.865c-12.677,0-24.388-2.091-35.17-6.225
	c-10.744-4.172-20.214-10.283-28.37-18.357c-8.077-7.923-14.262-17.279-18.628-28.021C2.164,110.806,0,99.331,0,87.192
	c0-12.175,2.164-23.575,6.493-34.244c4.366-10.707,10.628-20.058,18.862-28.135C33.585,16.657,43.016,10.475,53.684,6.3
	C64.312,2.087,75.83,0,88.197,0c9.74,0,19.016,1.431,27.866,4.251c8.812,2.821,17.394,7.112,25.701,12.832L140.296,44.292
	L140.296,44.292z"/>
<polygon points="164.118,169.748 164.118,3.98 256.645,3.98 256.645,26.861 191.058,26.861 191.058,92.06 191.058,145.631 
	256.645,145.631 256.645,169.748 164.118,169.748 "/>
<polygon points="262.179,78.667 326.962,3.98 359.93,3.98 294.225,77.686 367.737,169.748 332.95,169.748 262.179,78.667 "/>
<polygon points="445.851,26.861 445.851,169.748 418.915,169.748 418.915,26.861 374.854,26.861 374.854,3.98 489.682,3.98 
	489.682,26.861 445.851,26.861 "/>
<path d="M696.972,73.219l26.936,0.062h6.921c14.957,0,24.927-1.624,29.913-4.87c4.989-3.249,7.458-8.966,7.458-17.2
	c0-8.851-2.683-15.051-7.998-18.667c-5.312-3.611-15.112-5.469-29.373-5.45l-33.856,0.049V3.98h40.776
	c12.055,0,20.946,0.658,26.667,1.972c5.679,1.314,10.665,3.517,14.875,6.532c5.219,3.827,9.32,9.043,12.254,15.538
	c2.94,6.532,4.407,13.72,4.407,21.604c0,7.845-1.467,15.074-4.407,21.721c-2.934,6.647-7.035,11.865-12.254,15.615
	c-4.21,3.012-9.196,5.18-14.875,6.456c-5.721,1.275-14.612,1.934-26.667,1.934h-5.338h-10.199v74.397h-25.239V73.219L696.972,73.219
	z"/>
<path d="M630.895,67.47c-3.498,0-6.257,1.045-8.271,3.131c-1.999,2.077-3.018,4.918-3.018,8.528c0,3.675,0.991,6.573,2.962,8.664
	c1.972,2.085,4.692,3.145,8.164,3.145c3.115,0,5.671-1.112,7.636-3.308c1.978-2.201,2.968-5.028,2.968-8.5
	c0-3.5-0.957-6.318-2.884-8.462C636.54,68.54,634.011,67.47,630.895,67.47z"/>
<path d="M541.638,67.47c-3.498,0-6.257,1.039-8.266,3.131c-2.01,2.077-3.023,4.918-3.023,8.528c0,3.675,0.986,6.573,2.968,8.664
	c1.965,2.094,4.687,3.145,8.158,3.145c3.115,0,5.672-1.106,7.642-3.308c1.983-2.201,2.962-5.028,2.962-8.5
	c0-3.5-0.951-6.315-2.878-8.462C547.283,68.537,544.753,67.47,541.638,67.47z"/>
<path d="M586.473,67.799c-3.883,0-6.801,1.891-8.776,5.644c-1.977,3.76-2.962,9.308-2.962,16.646c0,7.133,0.979,12.603,2.935,16.414
	c1.965,3.817,4.785,5.727,8.437,5.727c3.903,0,6.833-1.855,8.798-5.589c1.954-3.713,2.94-9.296,2.94-16.702
	c0-7.215-0.965-12.701-2.896-16.481C593.015,69.683,590.174,67.799,586.473,67.799z"/>
<path d="M667.773,57.767c-4.439-10.513-10.857-19.981-19.32-28.368c-8.464-8.232-18.013-14.495-28.716-18.784
	c-10.67-4.289-21.953-6.455-33.9-6.455c-12.017,0-23.383,2.166-34.086,6.455c-10.703,4.29-20.29,10.552-28.754,18.784
	c-8.465,8.31-14.881,17.702-19.25,28.213c-4.363,10.476-6.569,21.644-6.569,33.512c0,11.941,2.206,23.109,6.569,33.507
	c4.369,10.435,10.785,19.747,19.25,27.981c8.311,8.157,17.854,14.416,28.715,18.861c10.824,4.407,22.184,6.607,34.125,6.607
	c11.794,0,23.039-2.2,33.742-6.569c10.708-4.369,20.333-10.664,28.874-18.899c8.463-8.234,14.881-17.585,19.32-28.097
	c4.408-10.474,6.613-21.604,6.613-33.392C674.387,79.41,672.182,68.318,667.773,57.767z M548.405,106.64l-1.013,1.434
	l-10.319,14.504l-7.201-3.691l16.853-22.057c-1.231,0.612-2.485,1.061-3.745,1.361c-1.27,0.291-2.556,0.438-3.871,0.438
	c-5.26,0-9.575-1.762-12.964-5.288c-3.395-3.525-5.086-8.048-5.086-13.57c0-6.041,1.899-10.892,5.7-14.583
	c3.81-3.675,8.824-5.521,15.072-5.521c5.824,0,10.511,1.79,14.074,5.384c3.569,3.595,5.344,8.309,5.344,14.158
	C561.249,85.484,556.974,94.627,548.405,106.64z M601.736,112.53c-3.751,5.268-8.897,7.91-15.473,7.91
	c-6.64,0-11.82-2.665-15.51-7.98c-3.701-5.328-5.547-12.807-5.547-22.44c0-9.565,1.868-17.004,5.602-22.344
	c3.739-5.345,8.924-8.009,15.581-8.009c6.724,0,11.914,2.674,15.538,8.022c3.63,5.353,5.441,13.011,5.441,22.957
	C607.369,99.971,605.486,107.264,601.736,112.53z M637.656,106.64l-1.007,1.434l-10.32,14.504l-7.206-3.691l16.853-22.057
	c-1.226,0.612-2.485,1.072-3.745,1.361c-1.264,0.297-2.551,0.438-3.865,0.438c-5.262,0-9.581-1.762-12.97-5.288
	c-3.388-3.525-5.086-8.048-5.086-13.57c0-6.041,1.899-10.901,5.7-14.583c3.805-3.679,8.83-5.521,15.076-5.521
	c5.82,0,10.513,1.793,14.076,5.384c3.564,3.592,5.344,8.309,5.344,14.158C650.506,85.484,646.153,94.583,637.656,106.64z"/>
</svg>
